<svg xmlns="http://www.w3.org/2000/svg" width="58" height="28.643" viewBox="0 0 58 28.643">
  <g id="Group_12" data-name="Group 12" transform="translate(-6 -16.357)">
    <circle id="Ellipse_22" data-name="Ellipse 22" cx="7.5" cy="7.5" r="7.5" transform="translate(21 21)" fill="#fff"/>
    <g id="social_slogan" transform="translate(7 16.357)">
      <text id="Happy_Streaming" data-name="Happy Streaming" transform="translate(-1 26.643)" fill="#fff" font-size="7" font-family="ArialRoundedMTBold, Arial Rounded MT Bold" letter-spacing="-0.01em"><tspan x="0" y="0">H</tspan><tspan y="0" letter-spacing="-0.02em">a</tspan><tspan y="0">p</tspan><tspan y="0" letter-spacing="-0.02em">p</tspan><tspan y="0">y St</tspan><tspan y="0" letter-spacing="-0.03em">r</tspan><tspan y="0">eaming</tspan></text>
      <path id="Path_17" data-name="Path 17" d="M168.05,6.478a9.152,9.152,0,0,1,.053-1,2.435,2.435,0,0,1,.253-.864,1.482,1.482,0,0,1,.585-.608,2.11,2.11,0,0,1,1.072-.22,2.146,2.146,0,0,1,1.082.231,1.487,1.487,0,0,1,.593.608,2.432,2.432,0,0,1,.253.864q.046.486.046,1v9.322a2.8,2.8,0,0,0,.213.922,1.71,1.71,0,0,0,.19.345,1.622,1.622,0,0,0,.279.3,1.267,1.267,0,0,0,.377.205,1.474,1.474,0,0,0,.507.079,1.535,1.535,0,0,0,.507-.079,1.226,1.226,0,0,0,.383-.205,1.621,1.621,0,0,0,.279-.3,1.71,1.71,0,0,0,.19-.345,2.518,2.518,0,0,0,.2-.922V2.689a9.766,9.766,0,0,1,.048-.993,2.306,2.306,0,0,1,.253-.864,1.49,1.49,0,0,1,.565-.611,2.143,2.143,0,0,1,1.089-.231,2.118,2.118,0,0,1,1.077.231,1.5,1.5,0,0,1,.585.611,2.457,2.457,0,0,1,.253.864,9.068,9.068,0,0,1,.053.993V15.494a5.434,5.434,0,0,1-.4,2.153,4.167,4.167,0,0,1-1.125,1.543,4.836,4.836,0,0,1-1.74.935,7.466,7.466,0,0,1-2.229.314,7.293,7.293,0,0,1-2.237-.324,4.953,4.953,0,0,1-1.733-.953,4.18,4.18,0,0,1-1.125-1.55,5.343,5.343,0,0,1-.4-2.118Z" transform="translate(-126.1 0.012)" fill="#fff"/>
      <path id="Path_18" data-name="Path 18" d="M61.875,14.53A8.525,8.525,0,1,0,70.4,23.055,8.525,8.525,0,0,0,61.875,14.53ZM65.125,24.6l-3.911,1.951c-1.707.854-3.1,0-3.1-1.918V21.464c0-1.908,1.4-2.771,3.1-1.918L65.125,21.5C66.832,22.355,66.832,23.751,65.125,24.6Z" transform="translate(-40.457 -10.846)" fill="#ed017f"/>
      <path id="Path_19" data-name="Path 19" d="M13.9,4.87A5.32,5.32,0,0,0,13.188,3.4a4.679,4.679,0,0,0-1.013-1.046,7.182,7.182,0,0,0-1.155-.712A8.271,8.271,0,0,0,7.868.9H3.138A2.315,2.315,0,0,0,1.9,1.174a1.654,1.654,0,0,0-.643.742,3.022,3.022,0,0,0-.236,1.046C1,3.355,1,3.756,1,4.166V17.641c0,.421,0,.831.035,1.234a3.113,3.113,0,0,0,.218,1.069,1.647,1.647,0,0,0,.638.76,2.315,2.315,0,0,0,1.241.279A2.389,2.389,0,0,0,4.4,20.7a1.644,1.644,0,0,0,.643-.76,3.172,3.172,0,0,0,.238-1.067c.025-.4.025-.813.025-1.236V12.855H6.913a2.485,2.485,0,0,1,1.117.215,1.649,1.649,0,0,1,.674.6,2.419,2.419,0,0,1,.339.93,7.141,7.141,0,0,1,.086,1.16V21a2.166,2.166,0,1,0,4.332,0V16.7h0v-.947a4.664,4.664,0,0,0-.253-1.634,4.213,4.213,0,0,0-.681-1.2,3.863,3.863,0,0,0-.932-.826,6.262,6.262,0,0,0-1.013-.522,5.32,5.32,0,0,0,1.371-.6,4.813,4.813,0,0,0,.955-.818,4.109,4.109,0,0,0,.646-.932,6.587,6.587,0,0,0,.4-.945,4.461,4.461,0,0,0,.185-.833,5.229,5.229,0,0,0,.043-.608A6.462,6.462,0,0,0,13.9,4.87Zm-4.874,4.1a2.533,2.533,0,0,1-.474.329,2.865,2.865,0,0,1-1.292.345H5.307V4.282H7.371A3.174,3.174,0,0,1,8.6,4.6a2.31,2.31,0,0,1,.453.3,1.941,1.941,0,0,1,.393.459,2.533,2.533,0,0,1,.291.631,3,3,0,0,1,.106.839,3.658,3.658,0,0,1-.106.935,2.647,2.647,0,0,1-.294.7,2.237,2.237,0,0,1-.415.507Z" transform="translate(-1.369 -0.664)" fill="#fff"/>
      <path id="Path_20" data-name="Path 20" d="M134.611,6.165a3.121,3.121,0,0,0,.1-.727,1.52,1.52,0,0,0-.16-.712,1.619,1.619,0,0,0-.421-.519,1.773,1.773,0,0,0-.59-.319,2.206,2.206,0,0,0-.676-.106,1.282,1.282,0,0,0-.621.142,1.74,1.74,0,0,0-.479.375,2.647,2.647,0,0,0-.372.545c-.106.205-.208.418-.3.638s-.2.441-.3.7l-.332.823-.35.871-.342.859q-.39.98-.783,2h-1.348V2.69a9.768,9.768,0,0,0-.048-.993,2.506,2.506,0,0,0-.231-.864,1.467,1.467,0,0,0-.542-.611,1.847,1.847,0,0,0-1-.231,1.756,1.756,0,0,0-.97.231,1.449,1.449,0,0,0-.535.611,2.622,2.622,0,0,0-.223.864,9.766,9.766,0,0,0-.048.993V17.636a9.91,9.91,0,0,0,.048,1.013,2.7,2.7,0,0,0,.223.871,1.446,1.446,0,0,0,.535.616,1.773,1.773,0,0,0,.97.231,1.87,1.87,0,0,0,.993-.231,1.464,1.464,0,0,0,.55-.638,2.578,2.578,0,0,0,.231-.871,9.91,9.91,0,0,0,.048-1.013V13.649h1.325a2.027,2.027,0,0,1,.922.182,1.409,1.409,0,0,1,.557.507,2.042,2.042,0,0,1,.271.76,5.944,5.944,0,0,1,.071.953v.476a1.789,1.789,0,0,0-.02.253v3.531a1.806,1.806,0,1,0,3.61,0V16.063a6.424,6.424,0,0,0-.094-1.155,5.381,5.381,0,0,0-.253-.917,3.94,3.94,0,0,0-.35-.7,3.448,3.448,0,0,0-.4-.507,2.787,2.787,0,0,0-1.087-.732l2.128-5.041A5.032,5.032,0,0,0,134.611,6.165Z" transform="translate(-93.239 0.011)" fill="#fff"/>
    </g>
  </g>
</svg>
