<svg id="social_twiter_o" xmlns="http://www.w3.org/2000/svg" width="40" height="40" viewBox="0 0 40 40">
  <path id="Path_21" data-name="Path 21" d="M40,20A20,20,0,1,1,20,0,20,20,0,0,1,40,20Z" fill="#00abe3"/>
  <path id="Path_22" data-name="Path 22" d="M30.391,12.293a9.453,9.453,0,0,1-2.867.98A4.785,4.785,0,0,0,24.231,12a4.717,4.717,0,0,0-3.176,1.17,3.894,3.894,0,0,0-1.334,2.87,3.49,3.49,0,0,0,.117.92,13.384,13.384,0,0,1-9.306-4.22,3.684,3.684,0,0,0-.609,2.033,3.927,3.927,0,0,0,2.009,3.334A4.933,4.933,0,0,1,9.887,17.6v.053a4.186,4.186,0,0,0,3.623,3.96,5.04,5.04,0,0,1-1.2.14,5.165,5.165,0,0,1-.851-.073,4.5,4.5,0,0,0,4.217,2.807,9.759,9.759,0,0,1-5.6,1.727q-.539.012-1.078-.027A13.9,13.9,0,0,0,15.923,28a13.35,13.35,0,0,0,9.09-3.292,11.009,11.009,0,0,0,3.788-8.2v-.52A8.658,8.658,0,0,0,31,13.893a9.723,9.723,0,0,1-2.589.633,4.1,4.1,0,0,0,1.98-2.233Z" fill="#fff"/>
  <path id="Path_23" data-name="Path 23" d="M40,20A20,20,0,1,1,20,0,20,20,0,0,1,40,20Z" fill="#00abe3"/>
  <path id="Path_24" data-name="Path 24" d="M30.391,12.293a9.453,9.453,0,0,1-2.867.98A4.785,4.785,0,0,0,24.231,12a4.717,4.717,0,0,0-3.176,1.17,3.894,3.894,0,0,0-1.334,2.87,3.49,3.49,0,0,0,.117.92,13.384,13.384,0,0,1-9.306-4.22,3.684,3.684,0,0,0-.609,2.033,3.927,3.927,0,0,0,2.009,3.334A4.933,4.933,0,0,1,9.887,17.6v.053a4.186,4.186,0,0,0,3.623,3.96,5.04,5.04,0,0,1-1.2.14,5.165,5.165,0,0,1-.851-.073,4.5,4.5,0,0,0,4.217,2.807,9.759,9.759,0,0,1-5.6,1.727q-.539.012-1.078-.027A13.9,13.9,0,0,0,15.923,28a13.35,13.35,0,0,0,9.09-3.292,11.009,11.009,0,0,0,3.788-8.2v-.52A8.658,8.658,0,0,0,31,13.893a9.723,9.723,0,0,1-2.589.633,4.1,4.1,0,0,0,1.98-2.233Z" fill="#fff"/>
  <path id="Path_25" data-name="Path 25" d="M40,20A20,20,0,1,1,20,0,20,20,0,0,1,40,20Z" fill="#4c2683"/>
  <path id="Path_26" data-name="Path 26" d="M30.391,12.293a9.453,9.453,0,0,1-2.867.98A4.785,4.785,0,0,0,24.231,12a4.717,4.717,0,0,0-3.176,1.17,3.894,3.894,0,0,0-1.334,2.87,3.49,3.49,0,0,0,.117.92,13.384,13.384,0,0,1-9.306-4.22,3.684,3.684,0,0,0-.609,2.033,3.927,3.927,0,0,0,2.009,3.334A4.933,4.933,0,0,1,9.887,17.6v.053a4.186,4.186,0,0,0,3.623,3.96,5.04,5.04,0,0,1-1.2.14,5.165,5.165,0,0,1-.851-.073,4.5,4.5,0,0,0,4.217,2.807,9.759,9.759,0,0,1-5.6,1.727q-.539.012-1.078-.027A13.9,13.9,0,0,0,15.923,28a13.35,13.35,0,0,0,9.09-3.292,11.009,11.009,0,0,0,3.788-8.2v-.52A8.658,8.658,0,0,0,31,13.893a9.723,9.723,0,0,1-2.589.633,4.1,4.1,0,0,0,1.98-2.233Z" fill="#fff"/>
</svg>
