<svg id="social_slogan" xmlns="http://www.w3.org/2000/svg" width="58" height="30.306" viewBox="0 0 58 30.306">
  <text id="Happy_Streaming" data-name="Happy Streaming" transform="translate(0 28.306)" fill="#fff" font-size="7" font-family="ArialRoundedMTBold, Arial Rounded MT Bold" letter-spacing="-0.01em"><tspan x="0" y="0">H</tspan><tspan y="0" letter-spacing="-0.02em">a</tspan><tspan y="0">p</tspan><tspan y="0" letter-spacing="-0.02em">p</tspan><tspan y="0">y St</tspan><tspan y="0" letter-spacing="-0.03em">r</tspan><tspan y="0">eaming</tspan></text>
  <path id="Path_17" data-name="Path 17" d="M168.05,6.869a9.7,9.7,0,0,1,.056-1.055,2.581,2.581,0,0,1,.269-.916,1.571,1.571,0,0,1,.62-.645,2.237,2.237,0,0,1,1.136-.234,2.275,2.275,0,0,1,1.147.244,1.576,1.576,0,0,1,.628.645,2.578,2.578,0,0,1,.269.916q.048.516.048,1.055v9.883a2.97,2.97,0,0,0,.226.978,1.814,1.814,0,0,0,.2.365,1.72,1.72,0,0,0,.3.314,1.343,1.343,0,0,0,.4.218,1.563,1.563,0,0,0,.537.083,1.628,1.628,0,0,0,.537-.083,1.3,1.3,0,0,0,.406-.218,1.718,1.718,0,0,0,.3-.314,1.813,1.813,0,0,0,.2-.365,2.669,2.669,0,0,0,.212-.978V2.851a10.352,10.352,0,0,1,.051-1.053,2.444,2.444,0,0,1,.269-.916,1.579,1.579,0,0,1,.6-.647,2.272,2.272,0,0,1,1.155-.244,2.245,2.245,0,0,1,1.141.244,1.6,1.6,0,0,1,.62.647,2.6,2.6,0,0,1,.269.916,9.61,9.61,0,0,1,.056,1.053V16.427a5.761,5.761,0,0,1-.419,2.283,4.418,4.418,0,0,1-1.192,1.636,5.127,5.127,0,0,1-1.845.991,7.915,7.915,0,0,1-2.363.333,7.732,7.732,0,0,1-2.371-.344,5.251,5.251,0,0,1-1.837-1.01,4.431,4.431,0,0,1-1.192-1.644,5.664,5.664,0,0,1-.419-2.245Z" transform="translate(-122.517 0.012)" fill="#fff"/>
  <path id="Path_18" data-name="Path 18" d="M62.387,14.53a9.037,9.037,0,1,0,9.037,9.037A9.037,9.037,0,0,0,62.387,14.53Zm3.446,10.681-4.147,2.068c-1.81.905-3.29,0-3.29-2.033V21.881c0-2.022,1.48-2.938,3.29-2.033l4.147,2.073C67.643,22.826,67.643,24.306,65.833,25.211Z" transform="translate(-38.621 -10.624)" fill="#f0007f"/>
  <path id="Path_19" data-name="Path 19" d="M14.681,5.109a5.64,5.64,0,0,0-.76-1.558,4.96,4.96,0,0,0-1.074-1.109,7.614,7.614,0,0,0-1.225-.755A8.769,8.769,0,0,0,8.281.9H3.267a2.455,2.455,0,0,0-1.316.293,1.754,1.754,0,0,0-.682.787,3.2,3.2,0,0,0-.25,1.109C1,3.5,1,3.928,1,4.363V18.648c0,.446,0,.881.038,1.308a3.3,3.3,0,0,0,.231,1.133,1.746,1.746,0,0,0,.677.806,2.455,2.455,0,0,0,1.316.3,2.533,2.533,0,0,0,1.343-.3,1.743,1.743,0,0,0,.682-.806,3.362,3.362,0,0,0,.252-1.131c.027-.427.027-.862.027-1.311V13.574h1.7a2.635,2.635,0,0,1,1.184.228,1.748,1.748,0,0,1,.714.636,2.565,2.565,0,0,1,.36.986,7.571,7.571,0,0,1,.091,1.23v5.559a2.3,2.3,0,0,0,4.592,0V17.648h0v-1a4.944,4.944,0,0,0-.269-1.732,4.466,4.466,0,0,0-.722-1.276,4.1,4.1,0,0,0-.988-.876,6.639,6.639,0,0,0-1.074-.553,5.64,5.64,0,0,0,1.453-.639,5.1,5.1,0,0,0,1.012-.867,4.356,4.356,0,0,0,.685-.988,6.983,6.983,0,0,0,.419-1,4.729,4.729,0,0,0,.2-.884,5.543,5.543,0,0,0,.046-.645,6.851,6.851,0,0,0-.287-2.073ZM9.513,9.455a2.686,2.686,0,0,1-.5.349,3.037,3.037,0,0,1-1.37.365H5.566V4.486H7.754a3.365,3.365,0,0,1,1.305.333,2.449,2.449,0,0,1,.481.32,2.057,2.057,0,0,1,.416.486,2.686,2.686,0,0,1,.309.669,3.177,3.177,0,0,1,.113.889,3.878,3.878,0,0,1-.113.991,2.806,2.806,0,0,1-.312.744,2.371,2.371,0,0,1-.44.537Z" transform="translate(-0.331 -0.651)" fill="#fff"/>
  <path id="Path_20" data-name="Path 20" d="M135.247,6.537a3.308,3.308,0,0,0,.107-.771,1.611,1.611,0,0,0-.169-.755,1.716,1.716,0,0,0-.446-.551,1.88,1.88,0,0,0-.626-.338,2.339,2.339,0,0,0-.717-.113,1.359,1.359,0,0,0-.658.15,1.845,1.845,0,0,0-.508.4,2.807,2.807,0,0,0-.395.577c-.113.218-.22.443-.32.677s-.207.467-.32.747l-.352.873-.371.924-.363.91q-.414,1.039-.83,2.119h-1.429V2.852A10.357,10.357,0,0,0,127.8,1.8a2.656,2.656,0,0,0-.244-.916,1.555,1.555,0,0,0-.575-.647,1.958,1.958,0,0,0-1.061-.244,1.861,1.861,0,0,0-1.029.244,1.536,1.536,0,0,0-.567.647,2.779,2.779,0,0,0-.236.916,10.352,10.352,0,0,0-.051,1.053V18.7a10.505,10.505,0,0,0,.051,1.074,2.862,2.862,0,0,0,.236.924,1.533,1.533,0,0,0,.567.653,1.88,1.88,0,0,0,1.029.244,1.982,1.982,0,0,0,1.053-.244,1.552,1.552,0,0,0,.583-.677,2.734,2.734,0,0,0,.244-.924,10.505,10.505,0,0,0,.051-1.074v-4.2h1.4a2.149,2.149,0,0,1,.978.193,1.493,1.493,0,0,1,.591.537,2.164,2.164,0,0,1,.287.806,6.3,6.3,0,0,1,.075,1.01v.5a1.9,1.9,0,0,0-.021.269v3.744a1.915,1.915,0,1,0,3.827,0v-4.5a6.809,6.809,0,0,0-.1-1.225,5.7,5.7,0,0,0-.269-.972,4.176,4.176,0,0,0-.371-.744,3.656,3.656,0,0,0-.422-.537,2.954,2.954,0,0,0-1.152-.776l2.256-5.344A5.333,5.333,0,0,0,135.247,6.537Z" transform="translate(-90.326 0.011)" fill="#fff"/>
</svg>
