<svg id="social_face_o" xmlns="http://www.w3.org/2000/svg" width="40" height="40" viewBox="0 0 40 40">
  <path id="Path_1" data-name="Path 1" d="M40,20A20,20,0,1,1,20,0,20,20,0,0,1,40,20Z" fill="#235b9e"/>
  <path id="Path_2" data-name="Path 2" d="M20,31h6V20h4.45L31,15.6H26.23V13.84a.784.784,0,0,1,.325-.758,1.535,1.535,0,0,1,1-.3h3.36V9H26.29C21.15,9,20,11.809,20,13.613V15.6H17V20h3Z" transform="translate(-4)" fill="#fff"/>
  <path id="Path_3" data-name="Path 3" d="M40,20A20,20,0,1,1,20,0,20,20,0,0,1,40,20Z" fill="#235b9e"/>
  <path id="Path_4" data-name="Path 4" d="M20,31h6V20h4.45L31,15.6H26.23V13.84a.784.784,0,0,1,.325-.758,1.535,1.535,0,0,1,1-.3h3.36V9H26.29C21.15,9,20,11.809,20,13.613V15.6H17V20h3Z" transform="translate(-4)" fill="#fff"/>
  <path id="Path_5" data-name="Path 5" d="M40,20A20,20,0,1,1,20,0,20,20,0,0,1,40,20Z" fill="#f0007f"/>
  <path id="Path_6" data-name="Path 6" d="M20,31h6V20h4.45L31,15.6H26.23V13.84a.784.784,0,0,1,.325-.758,1.535,1.535,0,0,1,1-.3h3.36V9H26.29C21.15,9,20,11.809,20,13.613V15.6H17V20h3Z" transform="translate(-4)" fill="#fff"/>
</svg>
