<svg xmlns="http://www.w3.org/2000/svg" width="88" height="37.149" viewBox="0 0 88 37.149">
  <g id="social_logo" transform="translate(0 0.01)">
    <path id="Path_13" data-name="Path 13" d="M183.17,10.707a15.355,15.355,0,0,1,.088-1.64,4.043,4.043,0,0,1,.412-1.438,2.5,2.5,0,0,1,.961-1,3.529,3.529,0,0,1,1.778-.381,3.593,3.593,0,0,1,1.789.381,2.5,2.5,0,0,1,.98,1,3.959,3.959,0,0,1,.412,1.438q.075.8.076,1.64V26.095a4.5,4.5,0,0,0,.351,1.526,2.847,2.847,0,0,0,.313.565,2.415,2.415,0,0,0,.458.488,2.064,2.064,0,0,0,.626.343,2.525,2.525,0,0,0,.832.126,2.605,2.605,0,0,0,.839-.126,2.037,2.037,0,0,0,.637-.343,2.415,2.415,0,0,0,.458-.488,2.845,2.845,0,0,0,.313-.565,4.253,4.253,0,0,0,.332-1.526V4.451c0-.557.027-1.106.076-1.64a3.94,3.94,0,0,1,.4-1.423,2.457,2.457,0,0,1,.957-1.007,4.375,4.375,0,0,1,3.574,0,2.449,2.449,0,0,1,.965,1.007,4.1,4.1,0,0,1,.412,1.423,15.422,15.422,0,0,1,.088,1.64V25.588a8.972,8.972,0,0,1-.645,3.555,6.828,6.828,0,0,1-1.854,2.548,8.01,8.01,0,0,1-2.872,1.526,12.458,12.458,0,0,1-3.681.519,11.939,11.939,0,0,1-3.693-.538,8.2,8.2,0,0,1-2.861-1.575,6.885,6.885,0,0,1-1.854-2.556,8.746,8.746,0,0,1-.656-3.5Z" transform="translate(-113.299 -0.006)" fill="#4c2185"/>
    <path id="Path_14" data-name="Path 14" d="M71.532,15.92A14.072,14.072,0,1,0,85.6,29.991,14.072,14.072,0,0,0,71.532,15.92Zm5.359,16.631-6.458,3.235c-2.819,1.4-5.138,0-5.138-3.17V27.367c0-3.147,2.289-4.577,5.123-3.162l6.473,3.227c2.815,1.408,2.815,3.712,0,5.119Z" transform="translate(-35.542 -9.854)" fill="#f0007f"/>
    <path id="Path_15" data-name="Path 15" d="M21.319,7.543a8.773,8.773,0,0,0-1.183-2.426A7.721,7.721,0,0,0,18.47,3.392a12.229,12.229,0,0,0-1.907-1.175A13.641,13.641,0,0,0,11.36.989H3.551A3.788,3.788,0,0,0,1.5,1.451,2.708,2.708,0,0,0,.45,2.668,5.039,5.039,0,0,0,.069,4.4C.019,5.044,0,5.7,0,6.383V28.629c0,.694.019,1.369.061,2.033a5.157,5.157,0,0,0,.381,1.762A2.708,2.708,0,0,0,1.5,33.657a3.788,3.788,0,0,0,2.048.462,3.9,3.9,0,0,0,2.079-.462A2.67,2.67,0,0,0,6.7,32.425a5.157,5.157,0,0,0,.381-1.762c.038-.664.057-1.339.057-2.033v-7.9H9.8a4.135,4.135,0,0,1,1.846.355,2.758,2.758,0,0,1,1.114.992A3.99,3.99,0,0,1,13.3,23.6a11.932,11.932,0,0,1,.145,1.907v8.67a3.576,3.576,0,0,0,7.152,0V27.062h0V25.5a7.557,7.557,0,0,0-.439-2.7,6.866,6.866,0,0,0-1.133-1.984A6.458,6.458,0,0,0,17.5,19.467a10.5,10.5,0,0,0-1.678-.866,8.648,8.648,0,0,0,2.258-.992,7.915,7.915,0,0,0,1.606-1.362,6.927,6.927,0,0,0,1.068-1.526,10.83,10.83,0,0,0,.637-1.549A7.69,7.69,0,0,0,21.7,11.8a9.761,9.761,0,0,0,.069-1.007,10.551,10.551,0,0,0-.45-3.25ZM13.275,14.31a4.059,4.059,0,0,1-.763.545,4.753,4.753,0,0,1-2.132.568H7.145V6.574h3.41a5.241,5.241,0,0,1,2.033.519,3.994,3.994,0,0,1,.763.5A3.147,3.147,0,0,1,14,8.355a4.162,4.162,0,0,1,.462,1.053,4.936,4.936,0,0,1,.179,1.385,5.951,5.951,0,0,1-.179,1.526,4.227,4.227,0,0,1-.484,1.144,3.574,3.574,0,0,1-.7.847Z" transform="translate(0 -0.614)" fill="#4c2185"/>
    <path id="Path_16" data-name="Path 16" d="M152.363,10.182a5.275,5.275,0,0,0,.168-1.2,2.468,2.468,0,0,0-.267-1.171,2.67,2.67,0,0,0-.69-.858,2.884,2.884,0,0,0-.977-.526,3.6,3.6,0,0,0-1.114-.175,2.144,2.144,0,0,0-1.026.233,2.872,2.872,0,0,0-.79.626,4.387,4.387,0,0,0-.618.9c-.175.339-.339.69-.5,1.057s-.324.725-.5,1.144-.359.889-.545,1.358-.381.95-.576,1.438-.381.957-.568,1.415q-.652,1.636-1.289,3.315h-2.224V4.445c0-.557-.027-1.106-.08-1.64a4.172,4.172,0,0,0-.381-1.423,2.392,2.392,0,0,0-.908-1.007,3.052,3.052,0,0,0-1.64-.381,2.91,2.91,0,0,0-1.6.381,2.361,2.361,0,0,0-.877,1.007A4.261,4.261,0,0,0,134.98,2.8c-.053.534-.08,1.083-.08,1.64V29.1q0,.858.08,1.659a4.356,4.356,0,0,0,.381,1.434,2.392,2.392,0,0,0,.877,1.018,2.945,2.945,0,0,0,1.6.381,3.052,3.052,0,0,0,1.64-.381,2.422,2.422,0,0,0,.912-1.018,4.265,4.265,0,0,0,.381-1.434q.08-.8.08-1.659V22.537h2.186a3.33,3.33,0,0,1,1.526.3,2.289,2.289,0,0,1,.915.839,3.391,3.391,0,0,1,.45,1.27,9.709,9.709,0,0,1,.118,1.572v.79a2.67,2.67,0,0,0-.034.431v5.794a2.979,2.979,0,0,0,5.958,0V26.52a10.325,10.325,0,0,0-.156-1.907,8.594,8.594,0,0,0-.408-1.526,6.486,6.486,0,0,0-.576-1.144,6,6,0,0,0-.637-.851,4.554,4.554,0,0,0-1.8-1.213l3.517-8.32a8.569,8.569,0,0,0,.446-1.377Z" transform="translate(-83.442)" fill="#4c2185"/>
  </g>
</svg>
