<svg id="social_youtube_o" xmlns="http://www.w3.org/2000/svg" width="40" height="40" viewBox="0 0 40 40">
  <path id="Path_27" data-name="Path 27" d="M40,20A20,20,0,1,1,20,0,20,20,0,0,1,40,20Z" fill="#ff4d3f"/>
  <path id="Path_28" data-name="Path 28" d="M31.888,29.189a.484.484,0,0,0-.425.175.959.959,0,0,0-.133.584v.65h1.117v-.65a1.017,1.017,0,0,0-.133-.584.484.484,0,0,0-.426-.175Z" transform="translate(-5.221 -4.865)" fill="#fff"/>
  <path id="Path_29" data-name="Path 29" d="M26.685,29.16a.6.6,0,0,0-.267.067.834.834,0,0,0-.258.2v4.027a1.051,1.051,0,0,0,.3.233.717.717,0,0,0,.3.067.4.4,0,0,0,.342-.133.717.717,0,0,0,.108-.45V29.86a.834.834,0,0,0-.125-.492A.492.492,0,0,0,26.685,29.16Z" transform="translate(-4.36 -4.862)" fill="#fff"/>
  <path id="Path_30" data-name="Path 30" d="M29.426,23H13.6A4.834,4.834,0,0,0,9,27.911v3.761a4.617,4.617,0,0,0,4.565,4.669H29.393a4.617,4.617,0,0,0,4.6-4.669V27.911A4.834,4.834,0,0,0,29.426,23Zm-12.5,3.169h-1.5v7.5H14v-7.5H12.524V24.893H16.9Zm4.165,7.5H19.829V32.96a2.733,2.733,0,0,1-.725.592,1.49,1.49,0,0,1-.733.208.766.766,0,0,1-.666-.292,1.444,1.444,0,0,1-.217-.834v-5.47h1.258v5a.576.576,0,0,0,.083.334.308.308,0,0,0,.258.1.683.683,0,0,0,.35-.133,1.717,1.717,0,0,0,.392-.35V27.169H21.1Zm4.565-1.351a1.669,1.669,0,0,1-.3,1.059,1.049,1.049,0,0,1-.833.367,1.565,1.565,0,0,1-.666-.142,1.666,1.666,0,0,1-.533-.442v.5H22.012V24.893h1.283v2.818a1.891,1.891,0,0,1,.541-.442,1.157,1.157,0,0,1,.583-.158,1.066,1.066,0,0,1,.916.417,1.978,1.978,0,0,1,.325,1.209Zm4.382-1.743H27.626V31.8a1.452,1.452,0,0,0,.125.709.458.458,0,0,0,.425.192.508.508,0,0,0,.442-.167,1.394,1.394,0,0,0,.125-.734v-.3h1.3v.334a2.111,2.111,0,0,1-.475,1.5,1.865,1.865,0,0,1-1.408.5,1.724,1.724,0,0,1-1.341-.534,2.086,2.086,0,0,1-.491-1.468v-2.91a1.835,1.835,0,0,1,.541-1.367,1.865,1.865,0,0,1,1.383-.534,1.748,1.748,0,0,1,1.333.492,1.986,1.986,0,0,1,.466,1.409Z" transform="translate(-1.495 -3.839)" fill="#fff"/>
  <path id="Path_31" data-name="Path 31" d="M14.68,9l1.909,5.837v3.827H18.2V14.653L20.067,9H18.432l-.992,3.861h-.1L16.3,9Z" transform="translate(-2.448 -1.501)" fill="#fff"/>
  <path id="Path_32" data-name="Path 32" d="M21.88,12.313a1.668,1.668,0,0,0-.6,1.326v3.694a1.893,1.893,0,0,0,.6,1.443,2.068,2.068,0,0,0,1.493.542,2.118,2.118,0,0,0,1.526-.525,1.876,1.876,0,0,0,.55-1.434V13.68a1.726,1.726,0,0,0-.559-1.334,2.035,2.035,0,0,0-1.451-.517,2.318,2.318,0,0,0-1.559.484Zm2.11,1.267v3.886a.609.609,0,0,1-.167.45.642.642,0,0,1-.459.167.559.559,0,0,1-.442-.167.625.625,0,0,1-.15-.45V13.58a.492.492,0,0,1,.167-.375.6.6,0,0,1,.425-.142.667.667,0,0,1,.45.142.475.475,0,0,1,.142.375Z" transform="translate(-3.548 -1.972)" fill="#fff"/>
  <path id="Path_33" data-name="Path 33" d="M31.688,19.163V12H30.262v5.412a1.9,1.9,0,0,1-.442.384.834.834,0,0,1-.4.15.317.317,0,0,1-.284-.117.559.559,0,0,1-.092-.359V12H27.619v5.962a1.509,1.509,0,0,0,.25.951.884.884,0,0,0,.742.325A1.776,1.776,0,0,0,29.445,19a3.119,3.119,0,0,0,.834-.659v.784Z" transform="translate(-4.604 -2.001)" fill="#fff"/>
  <path id="Path_34" data-name="Path 34" d="M40,20A20,20,0,1,1,20,0,20,20,0,0,1,40,20Z" fill="#ff4d3f"/>
  <path id="Path_35" data-name="Path 35" d="M31.888,29.189a.484.484,0,0,0-.425.175.959.959,0,0,0-.133.584v.65h1.117v-.65a1.017,1.017,0,0,0-.133-.584.484.484,0,0,0-.426-.175Z" transform="translate(-5.221 -4.865)" fill="#fff"/>
  <path id="Path_36" data-name="Path 36" d="M26.685,29.16a.6.6,0,0,0-.267.067.834.834,0,0,0-.258.2v4.027a1.051,1.051,0,0,0,.3.233.717.717,0,0,0,.3.067.4.4,0,0,0,.342-.133.717.717,0,0,0,.108-.45V29.86a.834.834,0,0,0-.125-.492A.492.492,0,0,0,26.685,29.16Z" transform="translate(-4.36 -4.862)" fill="#fff"/>
  <path id="Path_37" data-name="Path 37" d="M29.426,23H13.6A4.834,4.834,0,0,0,9,27.911v3.761a4.617,4.617,0,0,0,4.565,4.669H29.393a4.617,4.617,0,0,0,4.6-4.669V27.911A4.834,4.834,0,0,0,29.426,23Zm-12.5,3.169h-1.5v7.5H14v-7.5H12.524V24.893H16.9Zm4.165,7.5H19.829V32.96a2.733,2.733,0,0,1-.725.592,1.49,1.49,0,0,1-.733.208.766.766,0,0,1-.666-.292,1.444,1.444,0,0,1-.217-.834v-5.47h1.258v5a.576.576,0,0,0,.083.334.308.308,0,0,0,.258.1.683.683,0,0,0,.35-.133,1.717,1.717,0,0,0,.392-.35V27.169H21.1Zm4.565-1.351a1.669,1.669,0,0,1-.3,1.059,1.049,1.049,0,0,1-.833.367,1.565,1.565,0,0,1-.666-.142,1.666,1.666,0,0,1-.533-.442v.5H22.012V24.893h1.283v2.818a1.891,1.891,0,0,1,.541-.442,1.157,1.157,0,0,1,.583-.158,1.066,1.066,0,0,1,.916.417,1.978,1.978,0,0,1,.325,1.209Zm4.382-1.743H27.626V31.8a1.452,1.452,0,0,0,.125.709.458.458,0,0,0,.425.192.508.508,0,0,0,.442-.167,1.394,1.394,0,0,0,.125-.734v-.3h1.3v.334a2.111,2.111,0,0,1-.475,1.5,1.865,1.865,0,0,1-1.408.5,1.724,1.724,0,0,1-1.341-.534,2.086,2.086,0,0,1-.491-1.468v-2.91a1.835,1.835,0,0,1,.541-1.367,1.865,1.865,0,0,1,1.383-.534,1.748,1.748,0,0,1,1.333.492,1.986,1.986,0,0,1,.466,1.409Z" transform="translate(-1.495 -3.839)" fill="#fff"/>
  <path id="Path_38" data-name="Path 38" d="M14.68,9l1.909,5.837v3.827H18.2V14.653L20.067,9H18.432l-.992,3.861h-.1L16.3,9Z" transform="translate(-2.448 -1.501)" fill="#fff"/>
  <path id="Path_39" data-name="Path 39" d="M21.88,12.313a1.668,1.668,0,0,0-.6,1.326v3.694a1.893,1.893,0,0,0,.6,1.443,2.068,2.068,0,0,0,1.493.542,2.118,2.118,0,0,0,1.526-.525,1.876,1.876,0,0,0,.55-1.434V13.68a1.726,1.726,0,0,0-.559-1.334,2.035,2.035,0,0,0-1.451-.517,2.318,2.318,0,0,0-1.559.484Zm2.11,1.267v3.886a.609.609,0,0,1-.167.45.642.642,0,0,1-.459.167.559.559,0,0,1-.442-.167.625.625,0,0,1-.15-.45V13.58a.492.492,0,0,1,.167-.375.6.6,0,0,1,.425-.142.667.667,0,0,1,.45.142.475.475,0,0,1,.142.375Z" transform="translate(-3.548 -1.972)" fill="#fff"/>
  <path id="Path_40" data-name="Path 40" d="M31.688,19.163V12H30.262v5.412a1.9,1.9,0,0,1-.442.384.834.834,0,0,1-.4.15.317.317,0,0,1-.284-.117.559.559,0,0,1-.092-.359V12H27.619v5.962a1.509,1.509,0,0,0,.25.951.884.884,0,0,0,.742.325A1.776,1.776,0,0,0,29.445,19a3.119,3.119,0,0,0,.834-.659v.784Z" transform="translate(-4.604 -2.001)" fill="#fff"/>
  <path id="Path_41" data-name="Path 41" d="M40,20A20,20,0,1,1,20,0,20,20,0,0,1,40,20Z" fill="#4c2683"/>
  <path id="Path_42" data-name="Path 42" d="M31.888,29.189a.484.484,0,0,0-.425.175.959.959,0,0,0-.133.584v.65h1.117v-.65a1.017,1.017,0,0,0-.133-.584.484.484,0,0,0-.426-.175Z" transform="translate(-5.221 -4.865)" fill="#fff"/>
  <path id="Path_43" data-name="Path 43" d="M26.685,29.16a.6.6,0,0,0-.267.067.834.834,0,0,0-.258.2v4.027a1.051,1.051,0,0,0,.3.233.717.717,0,0,0,.3.067.4.4,0,0,0,.342-.133.717.717,0,0,0,.108-.45V29.86a.834.834,0,0,0-.125-.492A.492.492,0,0,0,26.685,29.16Z" transform="translate(-4.36 -4.862)" fill="#fff"/>
  <path id="Path_44" data-name="Path 44" d="M29.426,23H13.6A4.834,4.834,0,0,0,9,27.911v3.761a4.617,4.617,0,0,0,4.565,4.669H29.393a4.617,4.617,0,0,0,4.6-4.669V27.911A4.834,4.834,0,0,0,29.426,23Zm-12.5,3.169h-1.5v7.5H14v-7.5H12.524V24.893H16.9Zm4.165,7.5H19.829V32.96a2.733,2.733,0,0,1-.725.592,1.49,1.49,0,0,1-.733.208.766.766,0,0,1-.666-.292,1.444,1.444,0,0,1-.217-.834v-5.47h1.258v5a.576.576,0,0,0,.083.334.308.308,0,0,0,.258.1.683.683,0,0,0,.35-.133,1.717,1.717,0,0,0,.392-.35V27.169H21.1Zm4.565-1.351a1.669,1.669,0,0,1-.3,1.059,1.049,1.049,0,0,1-.833.367,1.565,1.565,0,0,1-.666-.142,1.666,1.666,0,0,1-.533-.442v.5H22.012V24.893h1.283v2.818a1.891,1.891,0,0,1,.541-.442,1.157,1.157,0,0,1,.583-.158,1.066,1.066,0,0,1,.916.417,1.978,1.978,0,0,1,.325,1.209Zm4.382-1.743H27.626V31.8a1.452,1.452,0,0,0,.125.709.458.458,0,0,0,.425.192.508.508,0,0,0,.442-.167,1.394,1.394,0,0,0,.125-.734v-.3h1.3v.334a2.111,2.111,0,0,1-.475,1.5,1.865,1.865,0,0,1-1.408.5,1.724,1.724,0,0,1-1.341-.534,2.086,2.086,0,0,1-.491-1.468v-2.91a1.835,1.835,0,0,1,.541-1.367,1.865,1.865,0,0,1,1.383-.534,1.748,1.748,0,0,1,1.333.492,1.986,1.986,0,0,1,.466,1.409Z" transform="translate(-1.495 -3.839)" fill="#fff"/>
  <path id="Path_45" data-name="Path 45" d="M14.68,9l1.909,5.837v3.827H18.2V14.653L20.067,9H18.432l-.992,3.861h-.1L16.3,9Z" transform="translate(-2.448 -1.501)" fill="#fff"/>
  <path id="Path_46" data-name="Path 46" d="M21.88,12.313a1.668,1.668,0,0,0-.6,1.326v3.694a1.893,1.893,0,0,0,.6,1.443,2.068,2.068,0,0,0,1.493.542,2.118,2.118,0,0,0,1.526-.525,1.876,1.876,0,0,0,.55-1.434V13.68a1.726,1.726,0,0,0-.559-1.334,2.035,2.035,0,0,0-1.451-.517,2.318,2.318,0,0,0-1.559.484Zm2.11,1.267v3.886a.609.609,0,0,1-.167.45.642.642,0,0,1-.459.167.559.559,0,0,1-.442-.167.625.625,0,0,1-.15-.45V13.58a.492.492,0,0,1,.167-.375.6.6,0,0,1,.425-.142.667.667,0,0,1,.45.142.475.475,0,0,1,.142.375Z" transform="translate(-3.548 -1.972)" fill="#fff"/>
  <path id="Path_47" data-name="Path 47" d="M31.688,19.163V12H30.262v5.412a1.9,1.9,0,0,1-.442.384.834.834,0,0,1-.4.15.317.317,0,0,1-.284-.117.559.559,0,0,1-.092-.359V12H27.619v5.962a1.509,1.509,0,0,0,.25.951.884.884,0,0,0,.742.325A1.776,1.776,0,0,0,29.445,19a3.119,3.119,0,0,0,.834-.659v.784Z" transform="translate(-4.604 -2.001)" fill="#fff"/>
</svg>
