<svg xmlns="http://www.w3.org/2000/svg" width="115" height="60.643" viewBox="0 0 115 60.643">
  <g id="Group_16" data-name="Group 16" transform="translate(-40 -42.357)">
    <g id="Ellipse_32" data-name="Ellipse 32" transform="translate(73 52)" fill="#fff" stroke="#707070" stroke-width="1">
      <ellipse cx="15" cy="16" rx="15" ry="16" stroke="none"/>
      <ellipse cx="15" cy="16" rx="14.5" ry="15.5" fill="none"/>
    </g>
    <g id="social_slogan" transform="translate(41 42.357)">
      <text id="Happy_Streaming" data-name="Happy Streaming" transform="translate(-1 57.643)" fill="#fff" font-size="14" font-family="ArialRoundedMTBold, Arial Rounded MT Bold" letter-spacing="-0.01em"><tspan x="0" y="0">H</tspan><tspan y="0" letter-spacing="-0.02em">a</tspan><tspan y="0">p</tspan><tspan y="0" letter-spacing="-0.02em">p</tspan><tspan y="0">y St</tspan><tspan y="0" letter-spacing="-0.03em">r</tspan><tspan y="0">eaming</tspan></text>
      <path id="Path_17" data-name="Path 17" d="M168.05,13.692a19.324,19.324,0,0,1,.112-2.1,5.141,5.141,0,0,1,.535-1.824,3.129,3.129,0,0,1,1.236-1.284,4.455,4.455,0,0,1,2.262-.465,4.53,4.53,0,0,1,2.284.487,3.139,3.139,0,0,1,1.252,1.284,5.134,5.134,0,0,1,.535,1.824q.1,1.027.1,2.1V33.4a5.916,5.916,0,0,0,.449,1.947,3.61,3.61,0,0,0,.4.727,3.423,3.423,0,0,0,.588.626,2.674,2.674,0,0,0,.8.433,3.113,3.113,0,0,0,1.07.166,3.241,3.241,0,0,0,1.07-.166,2.589,2.589,0,0,0,.808-.433,3.422,3.422,0,0,0,.588-.626,3.61,3.61,0,0,0,.4-.727,5.316,5.316,0,0,0,.423-1.947V5.691a20.619,20.619,0,0,1,.1-2.1,4.867,4.867,0,0,1,.535-1.824A3.145,3.145,0,0,1,184.786.481a4.525,4.525,0,0,1,2.3-.487,4.471,4.471,0,0,1,2.273.487,3.177,3.177,0,0,1,1.236,1.289,5.188,5.188,0,0,1,.535,1.824,19.149,19.149,0,0,1,.112,2.1V32.728a11.473,11.473,0,0,1-.834,4.546,8.8,8.8,0,0,1-2.375,3.257,10.211,10.211,0,0,1-3.675,1.974,15.763,15.763,0,0,1-4.707.663,15.4,15.4,0,0,1-4.723-.685,10.457,10.457,0,0,1-3.658-2.011A8.825,8.825,0,0,1,168.9,37.2a11.28,11.28,0,0,1-.834-4.471Z" transform="translate(-78.368 0.012)" fill="#fff"/>
      <path id="Path_18" data-name="Path 18" d="M71.348,14.53a18,18,0,1,0,18,18,18,18,0,0,0-18-18ZM78.211,35.8,69.952,39.92c-3.6,1.8-6.552,0-6.552-4.049v-6.7c0-4.028,2.947-5.851,6.552-4.049l8.258,4.129C81.816,31.052,81.816,34,78.211,35.8Z" transform="translate(-25.017 -6.752)" fill="#ed017f"/>
      <path id="Path_19" data-name="Path 19" d="M28.246,9.289a11.232,11.232,0,0,0-1.514-3.1,9.879,9.879,0,0,0-2.139-2.209,15.163,15.163,0,0,0-2.439-1.5A17.463,17.463,0,0,0,15.5.9H5.514a4.889,4.889,0,0,0-2.621.583A3.493,3.493,0,0,0,1.535,3.053a6.381,6.381,0,0,0-.5,2.209C1,6.091,1,6.936,1,7.8V36.252c0,.888,0,1.754.075,2.6a6.574,6.574,0,0,0,.46,2.257,3.477,3.477,0,0,0,1.348,1.6,4.889,4.889,0,0,0,2.621.588,5.044,5.044,0,0,0,2.674-.588,3.471,3.471,0,0,0,1.359-1.6,6.7,6.7,0,0,0,.5-2.252c.053-.85.053-1.717.053-2.61v-10.1h3.391a5.247,5.247,0,0,1,2.359.455,3.482,3.482,0,0,1,1.423,1.268,5.108,5.108,0,0,1,.717,1.963,15.078,15.078,0,0,1,.182,2.45V43.355a4.573,4.573,0,1,0,9.146,0V34.262h0v-2a9.847,9.847,0,0,0-.535-3.45,8.9,8.9,0,0,0-1.439-2.541,8.157,8.157,0,0,0-1.968-1.744,13.222,13.222,0,0,0-2.139-1.1,11.232,11.232,0,0,0,2.894-1.273,10.162,10.162,0,0,0,2.016-1.728A8.675,8.675,0,0,0,27.5,18.457a13.907,13.907,0,0,0,.834-2,9.419,9.419,0,0,0,.39-1.76,11.04,11.04,0,0,0,.091-1.284,13.644,13.644,0,0,0-.572-4.129ZM17.955,17.943a5.349,5.349,0,0,1-1,.7,6.049,6.049,0,0,1-2.728.727H10.093V8.048h4.359a6.7,6.7,0,0,1,2.6.663,4.878,4.878,0,0,1,.957.636,4.1,4.1,0,0,1,.829.968,5.349,5.349,0,0,1,.615,1.332,6.328,6.328,0,0,1,.225,1.77,7.723,7.723,0,0,1-.225,1.974,5.589,5.589,0,0,1-.62,1.482,4.723,4.723,0,0,1-.877,1.07Z" transform="translate(-0.667 -0.409)" fill="#fff"/>
      <path id="Path_20" data-name="Path 20" d="M146.36,13.029a6.594,6.594,0,0,0,.214-1.535,3.209,3.209,0,0,0-.337-1.5,3.418,3.418,0,0,0-.888-1.1,3.744,3.744,0,0,0-1.246-.674A4.659,4.659,0,0,0,142.675,8a2.706,2.706,0,0,0-1.31.3,3.675,3.675,0,0,0-1.011.792,5.589,5.589,0,0,0-.786,1.15c-.225.433-.439.883-.636,1.348s-.412.931-.636,1.487l-.7,1.738-.738,1.84-.722,1.813q-.824,2.07-1.653,4.22h-2.845V5.691a20.615,20.615,0,0,0-.1-2.1,5.29,5.29,0,0,0-.487-1.824A3.1,3.1,0,0,0,129.9.482a3.9,3.9,0,0,0-2.113-.487,3.707,3.707,0,0,0-2.049.487,3.059,3.059,0,0,0-1.129,1.289,5.536,5.536,0,0,0-.471,1.824,20.621,20.621,0,0,0-.1,2.1V37.248a20.926,20.926,0,0,0,.1,2.139,5.7,5.7,0,0,0,.471,1.84,3.054,3.054,0,0,0,1.129,1.3,3.744,3.744,0,0,0,2.049.487,3.947,3.947,0,0,0,2.1-.487,3.091,3.091,0,0,0,1.161-1.348,5.445,5.445,0,0,0,.487-1.84,20.917,20.917,0,0,0,.1-2.139V28.829h2.8a4.279,4.279,0,0,1,1.947.385,2.974,2.974,0,0,1,1.177,1.07,4.311,4.311,0,0,1,.572,1.6,12.548,12.548,0,0,1,.15,2.011v1.006a3.779,3.779,0,0,0-.043.535V42.9a3.814,3.814,0,1,0,7.622,0v-8.97a13.565,13.565,0,0,0-.2-2.439,11.363,11.363,0,0,0-.535-1.936,8.319,8.319,0,0,0-.738-1.482,7.28,7.28,0,0,0-.84-1.07,5.884,5.884,0,0,0-2.295-1.546l4.493-10.644A10.622,10.622,0,0,0,146.36,13.029Z" transform="translate(-57.897 0.012)" fill="#fff"/>
    </g>
  </g>
</svg>
